<svg xmlns="http://www.w3.org/2000/svg" viewBox="0 0 1080 801"><path fill="#FC902D" d="m634.406 113.855 3.316-.01q5.389-.013 10.778-.013l7.563-.01q7.917-.009 15.836-.007 8.08 0 16.16-.02 9.81-.026 19.622-.024 3.712 0 7.424-.013c12.526-.036 24.843.1 37.27 1.771 3.333.433 6.627.709 9.98.893a269.5 269.5 0 0 1 35.957 4.39l3.843.716c20.464 4.09 20.464 4.09 25.845 9.472 0 3.437 0 3.437-1 7-2.867 2.294-5.047 3.038-8.722 2.89-3.263-.425-6.48-.975-9.716-1.578l-3.353-.568c-4.336-.754-8.555-1.552-12.78-2.795-4.892-1.354-9.832-1.86-14.866-2.449-11.16-1.311-11.16-1.311-15.735-2.527-4.224-1.073-8.313-1.613-12.64-2.036l-2.451-.251c-6.912-.678-13.83-1.075-20.77-1.344-5.766-.241-5.766-.241-7.967-1.342-7.241-1.017-14.52-1.145-21.82-1.13l-3.09-.005a4299 4299 0 0 0-10 .002q-3.506 0-7.01-.003-7.324-.002-14.649.006-9.358.006-18.718-.004-7.23-.004-14.461 0l-6.9-.002q-4.83-.003-9.66.007l-2.843-.007c-10.202-.344-10.202-.344-19.849 2.136a93 93 0 0 1-4.629.465l-2.865.233-3.068.24c-7.45.615-14.888 1.267-22.313 2.124l-2.158.24c-3.27.157-3.27.157-5.967 1.698a97 97 0 0 1-4.855.648l-3.055.354-3.278.373c-7.95.947-15.704 2.048-23.503 3.871-5.174 1.179-10.395 2.075-15.618 3.008-3.677.692-3.677.692-7.16 1.742-4.508 1.282-9.044 2.065-13.658 2.86-4.115.735-7.922 1.8-11.873 3.144-3.51.798-7.033 1.507-10.562 2.219-3.245.737-6.288 1.721-9.438 2.781q-3.18.753-6.375 1.437c-3.76.84-7.313 1.722-10.875 3.188-4.286 1.571-8.224 2.071-12.75 2.375v2l-3.219.77c-7.11 1.723-13.985 3.488-20.781 6.23-6.168 2.176-12.427 4.06-18.691 5.937-3.087.992-6.097 2.094-9.125 3.247-4.913 1.836-9.89 3.506-14.85 5.21A198 198 0 0 0 334 189a457 457 0 0 1-8.25 3.187l-2.14.827c-3.006 1.135-5.37 1.986-8.61 1.986v2a665 665 0 0 1-4.312 1.5l-2.426.844C306 200 306 200 303 200v2l-2.344.734c-5.426 1.746-10.592 3.551-15.633 6.215-2.286 1.187-4.61 2.246-6.96 3.301-13.616 6.161-26.961 12.669-40.135 19.732L236 233l-2.06 1.131C232 235 232 235 229 235v2l-1.785.854c-7.819 3.816-15.198 8.24-22.62 12.769l-2.841 1.709-2.553 1.554C197 255 197 255 194 255v2l-1.547.812c-5.89 3.175-11.368 6.78-16.851 10.614C173 270 173 270 170 270l-1 3c-1.333.957-2.677 1.9-4.066 2.773-9.26 5.874-18.528 12.463-26.688 19.805l-1.871 1.672-1.727 1.578C133 300 133 300 130 300l-.738 1.797c-1.489 2.599-3.015 3.727-5.45 5.453-3.919 2.93-6.946 6.034-10.066 9.781-1.793 2.023-3.682 3.726-5.746 5.469-2.666 2.257-5.045 4.569-7.324 7.215l-1.834 2.126L97 334l-1.713 1.999C83.569 349.758 73.637 363.586 66 380h-2l-.402 1.898-.535 2.477-.528 2.46C62 389 62 389 61 391h-2l-.375 3.562c-.49 3.98-1.43 7.616-2.625 11.438h-2q-.363 3.91-.71 7.82-.272 2.994-.58 5.985c-2.787 28.754 1.605 54.292 14.728 80.07C69 503 69 503 69 505h2l.988 1.793c3.59 7.206 3.59 7.206 8.367 13.555 1.948 1.956 3.627 4.044 5.332 6.214l1.887 2.38C89 531 89 531 89 533l1.781.758c2.512 1.406 3.885 2.908 5.719 5.117 1.922 2.281 3.798 4.415 5.938 6.5C104 547 104 547 104 549l2.125.562c3.44 1.72 5.014 3.8 7.383 6.758 1.878 2.115 4.04 3.31 6.492 4.68v2l1.703.781c2.564 1.36 4.75 2.947 7.047 4.719l2.422 1.844L133 572v2l2.121.719c3.405 1.515 6.003 3.492 8.941 5.781 3.25 2.524 6.27 4.67 9.938 6.5l1 2c1.99 1.02 3.993 2.015 6 3a186 186 0 0 1 4.375 2.562l2.086 1.254L169 597v2l2.645.762c3.494 1.29 5.997 2.924 9.042 5.05 7.401 4.813 15.2 6.687 23.733 8.603 2.644.6 5.274 1.24 7.904 1.894 9.397 2.317 18.789 4.38 28.328 6.015 3.348.676 3.348.676 6.16 1.664 5.188 1.647 10.55 2.154 15.932 2.867 4.426.618 8.11 1.452 12.256 3.145 2.92.579 5.864.967 8.813 1.375 10.546 1.561 20.812 3.813 30.937 7.187 6.024 1.904 12.318 2.588 18.56 3.436l2.569.354c.769.1 1.538.202 2.33.307C340 642 340 642 341 643c2.708.362 5.403.668 8.121.937l2.47.258q3.922.409 7.846.805 3.92.398 7.836.805 2.442.255 4.885.497c5.617.585 5.617.585 7.842 1.698 2.773.286 5.532.522 8.313.719l2.552.19q2.693.2 5.387.393 4.022.29 8.045.593c9.364.69 18.726 1.32 28.108 1.738 3.086.152 5.646.384 8.595 1.367 1.532.165 3.07.283 4.608.373l2.865.172 3.136.174 3.303.19q5.418.303 10.838.591l3.748.203a1554 1554 0 0 0 57.19 1.984c1.126.02 2.253.038 3.414.057 21.803.345 43.596.36 65.398-.057l3.067-.058c15.964-.32 31.877-1.052 47.808-2.129.985-.066 1.97-.131 2.984-.2q4.145-.28 8.29-.581l2.49-.174c4.061-.236 4.061-.236 7.861-1.545 2.68-.354 5.348-.663 8.035-.938l4.889-.523q3.864-.406 7.73-.81 3.721-.391 7.444-.792l2.351-.24c3.579-.094 3.579-.094 6.551-1.697 1.982-.358 3.974-.66 5.969-.938l3.668-.523 7.726-1.078 3.668-.524 3.393-.472c2.5-.198 2.5-.198 3.576-1.465 1.44-.32 2.893-.588 4.348-.832l2.75-.475 2.965-.506c12.778-2.255 25.162-5.205 37.542-9.128 2.457-.766 4.91-1.503 7.383-2.211 10.152-2.907 20.1-6.21 30.012-9.848l2.107-.77c13.674-5.015 26.858-10.58 39.833-17.19 2.005-1.012 4.02-2 6.04-2.981 13.633-6.64 26.794-14.056 39.02-23.059 6.55-4.741 6.55-4.741 9.344-6.348 4.07-2.532 7.58-5.692 11.23-8.789C928 558 928 558 930 558v-2l2.125-1.188c3.172-2 5.031-4.162 7.39-7.027A68.5 68.5 0 0 1 946 541h2v-2c1.285-1.227 1.285-1.227 3.063-2.625 4.128-3.435 7.5-7.261 10.937-11.375l2.523-3.004c7.6-8.427 7.6-8.427 13.477-17.996h2l.938-2.875C982 498 982 498 983 496h2l.688-2.563c1.258-3.295 2.855-5.66 4.957-8.464 2.572-3.744 4.39-7.89 6.355-11.973q1.249-2.438 2.5-4.875c2.335-4.662 4.345-9.427 6.313-14.254a194 194 0 0 1 3.25-7.371c2.394-5.37 4.176-10.895 5.937-16.5l.68-2.121c6.875-21.521 10.942-42.811 13.01-65.311.275-2.275.74-4.355 1.31-6.568.42-5.504-.495-8.829-3.062-13.688-.467-.895-.467-.895-.942-1.81-2.707-5.14-5.665-10.13-8.71-15.076C1016 323 1016 323 1016 320l-3-1c-1.57-1.926-1.57-1.926-3.125-4.313l-1.57-2.363C1007 310 1007 310 1006.445 307.77L1006 306l-2-1-2-1-1-4a179 179 0 0 0-4-2l-.93-1.89c-1.167-2.3-2.24-3.29-4.258-4.86-3.452-2.835-6.285-5.965-9.183-9.355-3.814-4.556-3.814-4.556-8.629-7.895-2.883-1.442-4.728-3.721-7-6a258 258 0 0 0-5.5-4.625c-.918-.755-1.836-1.51-2.781-2.29-2.496-1.914-4.994-3.522-7.719-5.085-2.04-1.27-4.05-2.594-6-4v-2l-1.75-.375c-2.273-.631-4.175-1.514-6.25-2.625v-2l-3.125-.75c-3.814-1.079-6.642-2.95-9.875-5.25a86 86 0 0 0-4-2v-2l-2.187-.375c-2.77-.615-5.21-1.51-7.813-2.625v-2l-2-.25c-3.223-.806-5.748-2.072-8.676-3.6-10.643-5.264-22.226-8.956-33.324-13.15-1.605-.61-1.605-.61-3.242-1.23-7.181-2.674-14.491-4.924-21.815-7.167a407 407 0 0 1-5.33-1.705c-7.049-2.271-14.024-3.877-21.3-5.187C811 197 811 197 808.593 196.008c-3.613-1.405-7.274-1.908-11.093-2.508-7.875-1.238-7.875-1.238-10.883-2.5-4.186-1.6-8.563-1.94-12.992-2.5-9.788-1.248-9.788-1.248-13.926-2.496-5.744-1.56-11.6-1.976-17.511-2.567q-3.667-.37-7.333-.753l-3.26-.327C729 182 729 182 727 181a198 198 0 0 0-6.781-.719l-2.066-.19q-3.326-.3-6.653-.591l-4.536-.408c-8.65-.768-17.295-1.46-25.974-1.801-2.914-.122-5.198-.36-7.99-1.291-9.196-1.155-18.505-1.314-27.762-1.559l-2.343-.063c-23.673-.625-47.357-.49-71.037-.447q-9.315.014-18.63.02-18.114.016-36.228.049l2-5 2.247-.26q5.033-.584 10.066-1.178l3.537-.408 3.388-.4 3.127-.365c2.735-.326 2.735-.326 5.635-1.389 20.44-3.254 41.675-2.309 62.297-2.26 4.946.01 9.892.004 14.837-.008 51.305-.101 51.305-.101 73.263 3.84 3.452.568 6.794.74 10.29.865 6.183.305 12.17 1.115 18.251 2.266 6.685 1.261 13.397 2.286 20.125 3.297 23.168 3.53 46.043 8.37 68.746 14.195a222 222 0 0 0 8.379 1.93c3.812.875 3.812.875 6.19 1.84 3.678 1.452 7.45 2.257 11.294 3.156 4.18 1.104 8.237 2.487 12.328 3.879q2.542.844 5.086 1.684C876.82 205.889 895.149 212.554 913 221q3 1.41 6.002 2.815 1.944.91 3.887 1.825c3.332 1.564 6.677 3.033 10.111 4.36v2l2.23.362c2.734.63 4.66 1.478 7.09 2.853l2.371 1.33 2.434 1.392 2.457 1.381c3.212 1.813 6.347 3.635 9.418 5.682v2l1.75.375c2.273.631 4.175 1.514 6.25 2.625v2l2.938.812L973 254l1 3c1.857.61 1.857.61 4 1 2.981 1.265 4.772 2.686 7 5 2.93 2.503 5.793 4.862 9 7v2l1.61.652c3.29 1.855 5.902 4.343 8.64 6.91l1.733 1.615c4.597 4.33 9.245 8.74 13.017 13.823v2l1.938.812C1023 299 1023 299 1024 302l1.688 1.625c3.79 3.893 8.312 8.778 8.312 14.375h2c3 5.625 3 5.625 3 9h2c6.208 15.224 12.142 30.366 12.168 47.04l.01 2.308q.007 2.414.007 4.826c.002 2.423.02 4.845.04 7.267.039 10.906-.548 21.178-4.225 31.559a666 666 0 0 0-1.375 5.75c-1.157 4.693-2.588 9.058-4.473 13.504a185 185 0 0 0-2.46 6.21c-3.013 7.965-6.567 15.213-10.958 22.513A50.3 50.3 0 0 0 1026 476h-2c-1.075 2.652-2.095 5.284-3 8h-2l-.937 2.375C1017 489 1017 489 1016 491h-2l-.625 2c-2.462 5.371-6.18 9.873-10.375 14-2.503 2.93-4.862 5.793-7 9h-2l-.812 1.766c-1.203 2.262-2.526 4.04-4.188 5.984l-1.562 1.86C986 527 986 527 984 527l-.812 1.937C982 531 982 531 979 532c-.36 1.326-.69 2.661-1 4-3.66 5.144-8.361 9.34-13.148 13.406-3.217 2.769-6.126 5.826-9.04 8.906C954 560 954 560 952 560v2c-5.476 5-5.476 5-8 5l-1 3-2.437.937c-2.68.78-2.68.78-3.473 2.926-1.315 2.577-2.763 3.693-5.09 5.387l-2.125 1.578C928 582 928 582 926 582l-1 3c-2.215 1.824-2.215 1.824-4.937 3.687l-2.715 1.887C915 592 915 592 913 592v2c-4.385 3-4.385 3-7 3v2a102 102 0 0 1-6.375 4.125l-1.828 1.129C893.27 607 893.27 607 891 607l-1 3c-2.602 1.648-3.862 2-7 2l-1 3c-1.96 1.078-3.972 2.058-6 3q-2.228 1.201-4.437 2.437l-2.317 1.29q-2.15 1.217-4.273 2.484C860.295 627 860.295 627 857 627v2l-1.879.848-2.683 1.214-3.012 1.364a528 528 0 0 0-7.32 3.43l-2 .95a602 602 0 0 0-3.89 1.87c-3.386 1.608-6.499 2.787-10.216 3.324v2l-2.414.77-3.211 1.042-3.164 1.02c-3.19 1.083-3.19 1.083-5.961 2.586-4.406 2.145-8.968 3.58-13.625 5.082-5.62 1.828-11.2 3.688-16.722 5.794-3.244 1.203-6.537 2.241-9.84 3.268l-2.118.662c-4.284 1.32-8.551 2.434-12.949 3.315-2.192.506-4.251 1.208-6.371 1.961-4.228 1.47-8.436 2.276-12.852 2.973-2.893.505-2.893.505-6.132 1.496-3.741 1.06-7.439 1.79-11.266 2.468-5.002.9-9.938 1.907-14.875 3.125-6.054 1.44-12.11 2.23-18.285 2.91-3.254.374-6.456.915-9.68 1.489-7.637 1.3-15.324 1.936-23.035 2.601q-3.242.282-6.482.571-2.909.26-5.817.51c-2.98.242-2.98.242-4.91.845-3.356.75-6.733.887-10.158 1.066l-2.392.128c-9.952.484-19.904.462-29.866.45l-6.25.004q-6.505.002-13.01-.006a7789 7789 0 0 0-16.519.004q-6.44.005-12.88 0l-6.084.002c-29.795.027-29.795.027-44.007-2.074-9.768-1.42-19.61-1.94-29.453-2.597-16.03-1.1-16.03-1.1-22.945-2.434-7.986-1.532-16.076-2.132-24.164-2.886-5.895-.575-11.588-1.253-17.341-2.659-5.514-1.207-11.183-1.678-16.783-2.341-4.908-.606-9.6-1.367-14.373-2.654-4.274-1.015-8.652-1.484-13.003-2.054q-2.828-.37-5.653-.753l-2.496-.327C347 669 347 669 346 668a131 131 0 0 0-5.54-.902l-3.448-.51-7.203-1.04c-5.765-.852-11.215-1.888-16.809-3.548-3.05-.563-6.117-.998-9.187-1.438-6.459-.967-12.72-2.173-19.032-3.875-3.99-.986-8.022-1.579-12.09-2.16C270 654 270 654 267.621 653.035c-3.322-1.312-6.61-1.889-10.121-2.535-4.437-.816-8.335-1.809-12.5-3.5a212 212 0 0 0-6.75-1.438c-5.607-1.169-10.88-2.596-16.25-4.562l-3.098-1.09C204.805 634.935 190.855 629.614 177 624v-2l-2.54-.277c-3.977-.831-7.273-2.408-10.835-4.286l-1.941-.998A689 689 0 0 1 157 614v-2l-2.25-.375c-2.551-.58-4.477-1.362-6.75-2.625v-2l-2.25-.375c-4.33-.984-6.662-2.537-9.75-5.625-2.1-1.176-2.1-1.176-4-2v-2l-1.75-.375c-2.273-.631-4.175-1.514-6.25-2.625v-2l-2.187-.75c-3.076-1.367-5.247-3.09-7.813-5.25l-3-2v-2l-1.754-.824C103.493 578.164 98.304 573.842 94 569v-2h-2v-2l-3-1c-2.687-2.438-2.687-2.438-5-5v-2h-2c-1.508-1.68-1.508-1.68-3.125-3.875l-1.633-2.18C76 549 76 549 76 547l-1.805-.715c-2.693-1.576-3.698-3.201-5.32-5.848-1.89-3.308-1.89-3.308-4.875-5.437-3-5.423-3-5.423-3-8h-2c-3-5.75-3-5.75-3-8h-2a1667 1667 0 0 1-4-8.313l-1.156-2.38-1.094-2.295-1.016-2.11C46 502 46 502 46 499h-2a647 647 0 0 1-1.5-4.75l-.844-2.672C41 489 41 489 41 485h-2c-3.444-13.633-3.444-13.633-3-20h-2c-3.378-18.68-2.243-38.255 0-57h2l-.187-2.688c-.037-5.905 1.75-11.626 3.187-17.312h2l.375-3.625c.448-3.651 1.33-6.92 2.625-10.375h2l.375-2.688c.57-3.016 1.391-5.515 2.625-8.312h2l.375-2.25c.58-2.551 1.362-4.477 2.625-6.75h2l3-9h2l.938-2.375C63 340 63 340 64 338h2l.688-2.125c1.143-2.506 2.112-3.963 3.874-6 2.58-2.681 2.58-2.681 3.438-5.875 1.523-1.43 1.523-1.43 3.375-2.875 2.252-1.85 3.61-3.098 5.125-5.625 1.792-2.987 3.93-4.641 6.602-6.828 2.699-2.377 4.954-5.07 7.289-7.797 4.045-4.713 8.535-8.417 13.457-12.16a50 50 0 0 0 5.09-4.653L117 282h2v-2c4.385-3 4.385-3 7-3v-2l2.875-1.313c3.325-1.48 3.325-1.48 5.125-4.687 1.712-1.034 3.429-2.063 5.188-3.016 1.573-.854 3.104-1.788 4.625-2.734C146 262 146 262 148 262l1-3c2.602-1.648 3.862-2 7-2v-2q3.4-2.01 6.813-4l1.947-1.156C169.66 247 169.66 247 173 247l1-3a128 128 0 0 1 7-4l2.813-1.75C186 237 186 237 188 237l1-3a134 134 0 0 1 6-3q2.023-1.47 4-3a264 264 0 0 1 5-3l2.625-1.688C209 222 209 222 212 222v-2c14.23-8 14.23-8 17-8v-2c5.625-3 5.625-3 9-3v-2l1.665-.779q3.763-1.763 7.523-3.534l2.619-1.224c4.197-1.978 8.26-3.987 12.193-6.463 11.5-6 11.5-6 16-6v-2c.583-.23 1.165-.461 1.766-.7 8.8-3.5 17.572-7.006 26.109-11.113 22.578-10.486 47.196-17.909 71.131-24.626 2.098-.59 4.193-1.193 6.287-1.795 22.1-6.308 44.553-11.094 67.145-15.266l2.52-.467c12.459-2.298 24.903-4.255 37.49-5.706 2.89-.37 5.758-.836 8.634-1.304 7.817-1.225 15.664-1.904 23.543-2.586q3.247-.28 6.493-.57 2.904-.26 5.81-.51c3.107-.255 3.107-.255 6.072-1.357a88 88 0 0 1 4.366-.373l2.677-.172 2.906-.174 3.043-.19q3.212-.2 6.424-.393 4.779-.29 9.559-.593c11.629-.72 23.255-1.332 34.9-1.738l2.788-.103 2.4-.082c2.537-.157 5.032-.41 7.558-.69 5.603-.572 11.157-.64 16.785-.637"/><path fill="#FB9232" d="m634.406 113.855 3.316-.01q5.389-.013 10.778-.013l7.563-.01q7.917-.009 15.836-.007 8.08 0 16.16-.02 9.81-.026 19.622-.024 3.712 0 7.424-.013c12.526-.036 24.843.1 37.27 1.771 3.333.433 6.627.709 9.98.893a269.5 269.5 0 0 1 35.957 4.39l3.843.716c20.464 4.09 20.464 4.09 25.845 9.472 0 3.437 0 3.437-1 7-2.867 2.294-5.047 3.038-8.722 2.89-3.263-.425-6.48-.975-9.716-1.578l-3.353-.568c-4.336-.754-8.555-1.552-12.78-2.795-4.892-1.354-9.832-1.86-14.866-2.449-11.16-1.311-11.16-1.311-15.735-2.527-4.224-1.073-8.313-1.613-12.64-2.036l-2.451-.251c-6.912-.678-13.83-1.075-20.77-1.344-5.766-.241-5.766-.241-7.967-1.342-7.241-1.017-14.52-1.145-21.82-1.13l-3.09-.005a4299 4299 0 0 0-10 .002q-3.506 0-7.01-.003-7.324-.002-14.649.006-9.358.006-18.718-.004-7.23-.004-14.461 0l-6.9-.002q-4.83-.003-9.66.007l-2.843-.007c-10.202-.344-10.202-.344-19.849 2.136-1.655.22-3.317.391-4.98.535l-3.03.264-3.178.263-3.119.276c-5.25.447-10.423.774-15.693.662v-6l-18-1v-3q9.594-.619 19.19-1.227l6.492-.416c12.73-.82 25.453-1.552 38.202-1.993l2.786-.103 2.396-.08c2.536-.157 5.03-.408 7.554-.688 5.604-.573 11.158-.64 16.786-.638"/><path fill="#FB9231" d="M609.297 162.74c4.946.01 9.892.004 14.837-.008 51.305-.101 51.305-.101 73.263 3.84 3.452.568 6.794.74 10.29.866 6.183.304 12.17 1.114 18.251 2.265 6.685 1.261 13.397 2.287 20.125 3.297 9.69 1.466 19.325 3.082 28.937 5l2.918.582L780 179c-3 2-3 2-6 2v2l3 1c-1.968 1.968-5.348 1.662-8 2v1c-3.223.157-5.762.076-8.852-.91-5.825-1.74-11.936-2.051-17.96-2.652q-3.667-.372-7.333-.754l-3.26-.327C729 182 729 182 727 181a198 198 0 0 0-6.781-.719l-2.066-.19q-3.326-.3-6.653-.591l-4.536-.408c-8.65-.768-17.295-1.46-25.974-1.801-2.914-.122-5.198-.36-7.99-1.291-9.196-1.155-18.505-1.314-27.762-1.559l-2.343-.063c-23.673-.625-47.357-.49-71.037-.447q-9.315.014-18.63.02-18.114.016-36.228.049l2-5 2.247-.26q5.033-.585 10.066-1.177l3.537-.409 3.388-.4 3.127-.365c2.735-.326 2.735-.326 5.635-1.389 20.44-3.254 41.675-2.309 62.297-2.26"/><path fill="#F6A24D" d="M552 167v2l87 1v1l-7 1 18 1v1H517l2-5c3.998-.537 7.999-1.052 12-1.562l3.41-.46c6.136-.771 11.498-1.105 17.59.022"/><path fill="#F6A048" d="m627.157 113.88 2.562-.004 2.801.01h2.957c3.23 0 6.46.009 9.691.016l6.713.005q8.841.006 17.681.024 9.019.014 18.038.02 17.7.016 35.4.049v1l12 1v1q-21.606.07-43.21.104-10.032.014-20.064.047-9.677.032-19.354.039-3.696.005-7.392.021c-3.446.015-6.891.017-10.336.016l-3.102.022-2.847-.008-2.47.005c-2.461-.272-4.093-1.015-6.225-2.246 2.745-.915 4.334-1.124 7.157-1.12"/><path fill="#F3A150" d="M521 687h93v1h-19v2h-75z"/><path fill="#F4953B" d="M192 627a100 100 0 0 1 5 0l1 1q3.493.553 7 1v2l7 1v2l2-.187c4.09.255 7.207 1.644 11 3.187v2l3.375-.062C232 639 232 639 234 640v2l6-1 1 5c-6.564-1.165-12.731-2.746-19-5l-3.219-1.129c-7.984-2.817-15.895-5.792-23.781-8.871l1-3z"/><path fill="#F5A454" d="M541 657a5235 5235 0 0 1 14.044-.055q2.391-.008 4.781-.02 3.43-.018 6.859-.023l2.171-.015c1.716 0 3.43.051 5.145.113l1 1c1.779.158 3.563.251 5.348.316l3.271.127 3.443.12 3.456.13q4.24.16 8.482.307v1c-3.582.817-6.898 1.13-10.569 1.145l-3.306.02-3.54.003-3.655.01q-3.82.007-7.64.007c-3.907.002-7.813.02-11.72.04q-3.711.005-7.422.005l-3.55.022-3.288-.01-2.895.005C539 661 539 661 536 659h5z"/><path fill="#F69338" d="m526.233 685.729 2.651.012 2.79-.01c3.054-.01 6.108-.003 9.162.003l6.352-.005q6.666-.005 13.332.01c5.698.012 11.397.005 17.096-.007q6.563-.009 13.125 0 3.151.003 6.304-.005c2.937-.005 5.874.003 8.812.014l2.639-.012 2.43.017 2.104.002c2.316.296 3.948 1.112 5.97 2.252-3.254 2.17-4.134 2.24-7.887 2.195l-2.842-.02-2.958-.05-2.995-.027q-3.66-.036-7.318-.098v-2h-77c2.655-2.655 4.621-2.245 8.233-2.271"/><path fill="#F59E4E" d="M823 642v3c-5.338 2.22-10.69 4.267-16.187 6.063A135 135 0 0 0 794 656c-7.487 3.17-7.487 3.17-11 2l1-4 3.313.188c3.572.191 3.572.191 5.312-1.563L794 651c3.466-1.733 6.14-2.22 10-2v-2c6.223-2.852 12.053-5 19-5"/><path fill="#F0953E" d="m48 422 4 1v30l-5-1c-.03-4.062-.047-8.125-.062-12.187l-.026-3.487-.01-3.369-.016-3.094c.109-2.732.497-5.205 1.114-7.863"/><path fill="#F69B44" d="M914 571v4h-3v2h-4v2h-3v3h-5l-1 5h-6l-1 3c-3 2-3 2-7 2 .957-3.742 1.83-4.885 5.082-7.098a177 177 0 0 1 3.73-1.965c4.395-2.318 8.376-4.721 12.188-7.937 5.556-4 5.556-4 9-4"/><path fill="#F29D46" d="m956 552 4 1a418 418 0 0 1-2.875 3.5l-1.617 1.969L954 560h-2v2c-5.476 5-5.476 5-8 5l-1 3-2.437.938c-3.07 1.272-3.279 2.127-4.563 5.062-3 2-3 2-7 2v-2h2v-2h3v-2h2v-3h3v-2h3v-2c4.865-5.54 4.865-5.54 9-6v-3l5-2z"/><path fill="#F89F49" d="M1053 399q-.427 3.563-.875 7.125l-.238 2.016c-.533 4.179-1.484 7.897-2.887 11.859a492 492 0 0 0-2.219 9.195c-.694 2.494-1.53 4.55-2.781 6.805h-3c.596-4.869 1.57-9.328 3-14h3l-1-3c-.23-6.541-.23-6.541 1-9h2v-10c2-1 2-1 4-1"/><path fill="#EEA763" d="M552 167v2l67 1v1h-80v-3l-2-1c5.346-1.002 9.624-.849 15 0"/><path fill="#F99A42" d="M824 617v5l-6 2-2.332.8-2.418.825c-.758.26-1.516.52-2.297.79C809 627 809 627 807 627l-1 3h-8l-1-4c.704-.23 1.408-.461 2.133-.7a769 769 0 0 0 21.129-7.347C823 617 823 617 824 617"/><path fill="#F5933E" d="M220 617q5.813 1.18 11.625 2.375l3.316.672 3.223.664 2.952.603c3.035.722 5.94 1.659 8.884 2.686l-1 3h-12v-2l-3.937-.375c-2.215-.21-2.215-.21-4.063-.625l-1-2h-6v-2h-2z"/><path fill="#FBC99C" d="m534 168-1 3h-3v2h33v1h-46l2-5c5.07-.712 9.882-1.107 15-1"/><path fill="#F89E45" d="m579.063 162.75 3.785-.078c3.152.328 3.152.328 5.086 1.844L589 166l-2.93.184-3.945.254-2.079.132c-3.804.25-7.576.589-11.359 1.055-4.982.544-9.738.06-14.687-.625 7.328-4.885 16.47-4.098 25.063-4.25"/><path fill="#FDA048" d="M655 121h25v1l16 1v1h-41z"/><path fill="#F39A45" d="m597.063 115.813 3.785-.043C604 116 604 116 607 118c-3.69 3.69-16.352 2.055-21.705 2.068q-4.648-.013-9.295-.068l1-3c6.684-.697 13.344-1.122 20.063-1.187"/><path fill="#F7A34C" d="m976 532 3 1c-3.313 7.106-9.492 13.666-16 18h-4v-2h2v-2h3v-3h2v-2h3v-3h2l1-5h4z"/><path fill="#FC9D3F" d="m734 124-4 1v2q-2.437.039-4.875.063l-2.742.035C720 127 720 127 718 126c-1.87-.228-3.747-.41-5.625-.562l-3.04-.254L707 125c3.51-7.02 20.796-2.712 27-1"/><path fill="#F8953E" d="m1001 297 2 1-1 2h4v2h3v5h3c1.257 2.906 2 4.796 2 8h2l-1 2h-3c-1.605-1.645-1.605-1.645-3.187-3.812l-1.606-2.145C1006 309 1006 309 1006 306l-1.937-.562C1002 304 1002 304 1001.25 300.375z"/><path fill="#F6913A" d="m749 641-2 4h-7l-1 2h-12v-2c6.17-3.77 14.945-6.363 22-4"/><path fill="#F9953D" d="m1034 321 4 1 1 5h2q1.005 2.685 2 5.375l1.125 3.023C1045 338 1045 338 1045 340c-1.875-.187-1.875-.187-4-1-1.187-2.5-1.187-2.5-2-5l-1-1-2 2v-10h-2z"/><path fill="#F69D4A" d="M1039 437h4c-.724 4.445-2.15 8.558-3.75 12.75l-.727 2.074c-.757 1.973-.757 1.973-2.523 5.176-2.703.953-2.703.953-5 1v-4h2l1-5h2v-7l3-1z"/><path fill="#F49B47" d="M889 604h4v3h-2l-1 3c-2.602 1.648-3.862 2-7 2l-1 3c-2.937 1.625-2.937 1.625-6 3l-2 1v-5l5-1v-2h2v-2l5-1v-2h3z"/><path fill="#EC8F34" d="M148 584c5.875 2.75 5.875 2.75 7 5l2.625 1.313c3.809 1.904 6.956 4.157 10.375 6.687l-1 2c-2.929-.628-5.361-1.586-8-3v-2l-7-2v-2l-4-1c-.562-1.937-.562-1.937-1-4z"/><path fill="#F78D34" d="M93 537c4.713 2.357 8 5.72 11 10v2l2 1-1 2h-2v-2h-3v4h-2l1-7h-2v-3h-2v-2h-3v-2h-2l1-2 2 1z"/><path fill="#F39F49" d="M769 659h5c0 2 0 2-1.422 3.488-3.74 2.193-7.607 2.852-11.828 3.7l-2.547.537c-2.066.434-4.134.856-6.203 1.275l-1-2 1-2 7 1v-3c6.625-1.125 6.625-1.125 10 0z"/><path fill="#F79E3C" d="M54 354h3c-.423 4.514-2.413 7.535-4.844 11.23-1.202 1.767-1.202 1.767-2.156 3.77l.625 1.875C51 373 51 373 49.688 375.25L48 377h-2c.412-4.97.796-9.445 3-14h2l.375-2.25c.58-2.551 1.362-4.477 2.625-6.75"/><path fill="#F2A24C" d="M822 128c2.438.688 2.438.688 5 2 1.18 3.29 1.116 4.653 0 8-3.604 2.461-6.118 3.224-10.375 2.688L813 140l1-3 9-1 1-4h-2z"/><path fill="#F6994C" d="M218 637h7v2l3.375-.062C232 639 232 639 234 640v2l6-1 1 5c-17.538-2.836-17.538-2.836-23-9"/><path fill="#F38F35" d="M1019 327h7l1 8h2v-3h2v5h-2v4c-3.638-1.213-3.843-2.018-5.562-5.312l-1.254-2.364A700 700 0 0 1 1019 327"/><path fill="#FB9E3E" d="m562 118 1 3c-2.852.814-5.366 1.119-8.328 1.098l-2.422-.01-2.5-.025-2.547-.014q-3.101-.02-6.203-.049v-3c7.016-.599 13.957-1.138 21-1"/><path fill="#F49E42" d="M914 587h4v3l-5 2v2c-4.385 3-4.385 3-7 3v2c-2.647 1.46-3.894 2-7 2v-2h2v-2h3v-3l7-2v-3h3z"/><path fill="#F49C46" d="M598 122c1.75 1.52 1.75 1.52 3 3-1.048.09-1.048.09-2.117.184l-2.758.254c-.905.08-1.81.162-2.742.246-2.394.186-2.394.186-4.383 1.316-2.094.203-2.094.203-4.5.25l-2.406.078L580 127l-2-3c14.575-3.051 14.575-3.051 20-2"/><path fill="#F19844" d="m412.25 650.438 2.258.158q2.746.195 5.492.404l1 3h-22l1-3c3.983-1.522 8.085-.883 12.25-.562"/><path fill="#F69133" d="M1029 462h2c-.654 5.07-2.855 9.42-5 14h-2l-2 5h-3v-2h2v-5h2l1-5h2l1-5h2z"/><path fill="#F49941" d="M746 116c7.39-.147 14.644.292 22 1l-2 3c-3.047.328-3.047.328-6.75.25-1.212-.015-2.423-.03-3.672-.047-3.267-.185-6.366-.592-9.578-1.203z"/><path fill="#F6983E" d="M849 609v3h-5l-1 3-11 2-1-3a913 913 0 0 1 7.313-3.062l2.091-.893c5.256-2.158 5.256-2.158 8.596-1.045"/><path fill="#F39C42" d="m607 685.75 2.156-.023c3.768.014 6.649.176 9.844 2.273-3.254 2.17-4.134 2.24-7.887 2.195l-2.842-.02-2.958-.05-2.995-.027q-3.66-.036-7.318-.098v-2c3.786-2.485 7.633-2.297 12-2.25"/><path fill="#F7A146" d="M801 649v2l2 1c-16.047 7.318-16.047 7.318-20 6l1-4 3.313.188c3.572.191 3.572.191 5.312-1.563L794 651c4.316-2 4.316-2 7-2"/><path fill="#F69539" d="M126 592h4v2l3-2h4l-1 4 2 1v2h2v2l-7-1-1-3c-1.936-.672-1.936-.672-4-1l-2-1z"/><path fill="#F89D3F" d="M372 647c5.75-.125 5.75-.125 8 1 1.704.226 3.413.409 5.125.563l2.758.253L390 649v3h-18z"/><path fill="#F29036" d="M140 287h4v2h-2v4c-2.812 2.063-2.812 2.063-6 4l-1.5 1.688c-2.252 1.97-4.596 1.99-7.5 2.312v-2h2v-2h3v-2c1.375-1.625 1.375-1.625 3-3h2v-2h3z"/><path fill="#F69C3D" d="m184 257 1 2 3 1a896 896 0 0 1-6.75 4.5c-.634.43-1.268.859-1.922 1.3-3.472 2.28-5.072 3.2-9.328 3.2v-2h2v-2c1.188-1.625 1.188-1.625 3-3 2.688-.187 2.688-.187 5 0v-2h4z"/><path fill="#FA9238" d="M586 163h11v2h2v2l-29 1c4.177-2.088 6.652-2.37 11.25-2.625l3.828-.227L588 165z"/><path fill="#EBA053" d="m477 655 20 1-1 3h-17z"/><path fill="#F4A14E" d="M639 656v3h-19l1-3q3.375-.292 6.75-.562l3.797-.317c2.848-.1 4.796-.027 7.453.879"/><path fill="#F3A355" d="m276 651 12 1v2h4v2c-3.53 1.202-6.129.795-9.75.063l-2.984-.59L277 655z"/><path fill="#F79947" d="m389.438 670.875 2.37-.008C394 671 394 671 397 672l-2 4-12-1v-3c2.353-1.176 3.82-1.134 6.438-1.125"/><path fill="#F3933B" d="M101 572h4v2h2v3h3v2h3v2h2v2c-6.747 0-10.467-4.578-15-9z"/><path fill="#F89129" d="M836 194c5.414.467 9.205 1.243 14 4l-3 2v-2h-3v2l-3 1-1 2h-5l1-2h3v-2l-3-1h3v-2h-3z"/><path fill="#F89638" d="M203 226c2 2 2 2 2 6h-3l-1 3h-6c.625-2.812.625-2.812 2-6 3.125-1.875 3.125-1.875 6-3"/><path fill="#F59F4E" d="M495.938 683.75c1.04.015 2.08.03 3.152.047 2.455.171 4.562.501 6.91 1.203v2c-6.578.955-12.418.893-19 0 2.615-3.438 4.762-3.353 8.938-3.25"/><path fill="#FED6AA" d="M551 657q5.718-.042 11.438-.062l3.298-.026 3.135-.01 2.904-.016C574 657 574 657 575 658c1.34.156 2.688.25 4.035.316l2.451.127 2.577.12 2.587.13q3.175.159 6.35.307v1c-29.139.206-29.139.206-42-1z"/><path fill="#F5A04E" d="m220 617 14 3v2l5 1v2a402 402 0 0 1-4.937-.375l-2.778-.21L229 624l-1-2h-6v-2h-2z"/><path fill="#F69B3A" d="M119 280h2l1 4-4 1v2h-3v3h-3v2h-5c6.445-7.842 6.445-7.842 10-10h2z"/><path fill="#F6AF4D" d="m671.25 171.813 3.266.082L677 172v4h5v1l-3.75-.437c-5.74-.641-11.493-1.105-17.25-1.563 3.386-3.131 5.711-3.336 10.25-3.187"/><path fill="#FEAD4B" d="M541 657h10v2h15v1h-30v-1h5z"/><path fill="#F79F43" d="m172 617 1 3 2.063-.625c3.725-.476 6.407.448 9.937 1.625l-1 5-7-2v-2l-6-1z"/><path fill="#F39641" d="m929 560-2 4h-3v3h-2v2h-4l-1 3h-2c.337-2.994.988-3.988 3.18-6.14l2.695-2.11 2.68-2.14C926 560 926 560 929 560"/><path fill="#F5983F" d="m759 176 3 1q1.996.515 4 1v2h-2l1 3-2 3-6-1z"/><path fill="#F09D48" d="m662.504 680.902 3.058.035 3.067.028L671 681l-1 4-10 1-1-4c1-1 1-1 3.504-1.098"/><path fill="#F29037" d="M70 509h3c6 8 6 8 6 13l-4 1v-6h-3v-5h-2z"/><path fill="#F59A3F" d="m320 189 4 1v3l-9 2v2l-8-1v-1h5v-2l3.438-.875L319 191z"/><path fill="#F59331" d="M564 125h17l-1 2c-1.766.41-1.766.41-4.035.633l-2.451.254-2.577.238-2.587.262q-3.174.316-6.35.613z"/><path fill="#F7A14A" d="m361.75 645.438 2.422.308L366 646v4l-13-1v-3c3.122-.967 5.52-.99 8.75-.562"/><path fill="#F5943D" d="M964 523h2v4h-2v3h-2v2h-3v3h-2v2h-2c1.196-5.547 2.608-8.157 7-12z"/><path fill="#F6A34E" d="M703 676v4l-11 1v-4c3.734-.879 7.168-1.09 11-1"/><path fill="#F49D46" d="m1016 482 3 1c-.628 2.929-1.586 5.361-3 8h-2l-1 3-3-1-1 2v-3h2v-3h2l1-5h2z"/><path fill="#F79F47" d="m421 674 1 2h5l1 3-1 2-10-1c1-4 1-4 4-6"/><path fill="#F3933D" d="m160 272 7 1c-2.884 3.408-4.37 4.866-8.812 5.813L155 279v-4h5z"/><path fill="#EE9C48" d="M458 682h14v4l-13-1z"/><path fill="#FBA54A" d="M691 651v2c-3.634 2.326-6.77 2.163-11 2l-1-4c4.316-.762 7.744-1.16 12 0"/><path fill="#FDA651" d="M589 116a788 788 0 0 1 7.313-.125c.69-.017 1.38-.034 2.091-.05 3.767-.037 5.38.031 8.596 2.175-1.782 1.782-4.343 1.173-6.75 1.188l-3.172.042c-3.099-.232-5.28-.92-8.078-2.23z"/><path fill="#F3963F" d="m795 629-1 3h-7v2h-7l1-3c4.81-1.55 8.92-2.254 14-2"/><path fill="#F6A255" d="M866 619h2c-.062 1.75-.062 1.75-1 4-4.507 3.182-7.363 4.55-13 4l2-1v-2h3v-2l7-1z"/><path fill="#F29D4B" d="m670 654-1 3c-1.77.081-3.541.14-5.312.188l-2.989.105C658 657 658 657 656.145 655.488L655 654q2.625-.292 5.25-.562l2.953-.317c2.56-.11 4.378.102 6.797.879"/><path fill="#F79E3A" d="M724 646v3l-10 1-1-4c4.018-.841 7.018-1.054 11 0"/><path fill="#F6913E" d="M263 626v4l-11-1 1-3c3.694-1.231 6.206-.644 10 0"/><path fill="#F89D47" d="M359 665v2l5 1-2 3-9-1v-4c2.076-.553 3.844-1 6-1"/><path fill="#F89B47" d="m185 608 6 2v3l4 1h-13v-2h2z"/><path fill="#FC8E23" d="m921 225 5 2v1h-5l1 3-5 1v2l-5-1 1-2h3v-3l5-1z"/><path fill="#F79E4F" d="m657 163 4 1v1l10 1-1 2c-6.766.114-13.288-.12-20-1v-1l7-1z"/><path fill="#F4B06C" d="M715.188 121.938 719 122v2l4 1-1 2-15-2c1.73-3.46 4.714-3.12 8.188-3.062"/><path fill="#F99D50" d="M400 674q2.125-.04 4.25-.062l2.39-.036c2.267.094 4.189.466 6.36 1.098v2c-4.97.913-9.03.913-14 0z"/><path fill="#FE9A53" d="M513 657h20l-3 4c-3.187.25-3.187.25-6 0l-1-2c-2.356-.468-2.356-.468-5.062-.625l-2.786-.227L513 658z"/><path fill="#F5953F" d="M805 625v2h2l-1 3h-8l-1-4c2.892-.826 4.887-1 8-1"/><path fill="#F4963D" d="M110 555c4.257.473 6.33 2.81 9 6v4l-4-1-1-4-4-1z"/><path fill="#F6A04B" d="M264 218c-9 6-9 6-12 6v-5c3.996-2.83 7.427-1.762 12-1"/><path fill="#F5AC5B" d="M823 642v3q-2.435 1.005-4.875 2l-2.742 1.125C813 649 813 649 811 649c.063-1.812.063-1.812 1-4 3.969-2.097 6.484-3 11-3"/><path fill="#FB9F52" d="m48 422 4 1-1 12h-2z"/><path fill="#F79C35" d="M534 168h5v3l2 1c-1 1-1 1-3.285 1.098l-2.778-.036-2.785-.027L530 173v-2h3z"/><path fill="#F7A44D" d="m952 537-1 7-4 1v2h-2l-1-3 2-3h2v-2c3-2 3-2 4-2"/><path fill="#F49743" d="m976 532 3 1c-1.491 3.795-3.757 5.61-7 8l-1-6 5-1z"/><path fill="#F59937" d="M63 372c2 .313 2 .313 4 1l1 2c-.937 2.625-.937 2.625-2 5h-4q-.062-3.5 0-7z"/><path fill="#FC912C" d="M901.375 216.375 903 218h-4l1 3-3 1v2l-3-1h2v-3l-3-1v-2c5.415-2.338 5.415-2.338 8.375-.625"/><path fill="#FB8C2C" d="m823 190 4 1-2 2 6 2v2h-4v2l-4-1 1-3-3-1z"/><path fill="#F7A149" d="M325 640c2.69.176 5.329.618 8 1v4l-9-1c0-3 0-3 1-4"/><path fill="#F69D4A" d="M986 493h3v4h-2v2h-3v3l-4 1 3-7h2z"/><path fill="#F89A3A" d="M1019 327h7l-1 10c-3.376-3.376-4.275-5.645-6-10"/><path fill="#F79B3A" d="M936 234c2.875.188 2.875.188 6 1 1.375 2.563 1.375 2.563 2 5h-3v2h-2v-4l-3-1z"/><path fill="#F29A47" d="m716 168-1 2 6 1v1h-14v-3c2.957-1.478 5.742-1.06 9-1"/><path fill="#F2A555" d="M829 637h8c-2.54 3.105-5.174 3.985-9 5h-4v-3h4z"/><path fill="#F29F4E" d="m443.125 678.938 2.758.027L448 679l-1 4a402 402 0 0 1-4.937-.375c-.917-.07-1.834-.14-2.778-.21L437 682l-1-2c2.525-1.262 4.312-1.099 7.125-1.062"/><path fill="#F69D44" d="m728 672-1 3-8 1v-4c3.069-1.534 5.7-.55 9 0"/><path fill="#F1903B" d="M116 584h4v3h3v2h2v2c-5.464-.607-5.464-.607-7.875-2.375C116 587 116 587 116 584"/><path fill="#F29441" d="M135 578c6.625.75 6.625.75 10 3v3h-5v-2h-3v-3z"/><path fill="#F0993A" d="M1029 366c2.048 1.963 2.95 3.428 3.2 6.27-.011 2.25-.07 4.484-.2 6.73h-2c-2.489-4.685-1.857-7.944-1-13"/><path fill="#FE9937" d="M541 657v2c-2 2-2 2-4.164 2.195l-2.461-.07-2.477-.055L530 661l-1-2c3.9-2.6 7.474-2.15 12-2"/><path fill="#F79F4E" d="m252 645 2 1c2 .04 4 .043 6 0v5a295 295 0 0 1-3.937-.875l-2.215-.492C252 649 252 649 251 647z"/><path fill="#F29544" d="m159 591 9 6-1 2c-2.929-.628-5.361-1.586-8-3v-2l-2-1h2z"/><path fill="#F7A848" d="M93 537c3.571 1.88 5.547 3.17 7 7l-3 1-2-1v-2h-3v-2h-2l1-2 2 1z"/><path fill="#F49942" d="m989 517 3 1h-2l1 3c-1.75 2.688-1.75 2.688-4 5h-3v-4h2l1-3h2z"/><path fill="#F3923A" d="m972 254 2 1v2l4 1 1 4c-2.804.227-4.462.34-6.875-1.187C971 259 971 259 971.313 256.313z"/><path fill="#F29139" d="M165 253c-1.108 3.214-1.985 3.991-5 5.75-3 1.25-3 1.25-5 1.25v-2h2l.375-1.937L158 254c2.463-1.231 4.28-1.072 7-1"/><path fill="#F49B40" d="m531 121-1 4h-9v-2l-2-1q2.156-.253 4.313-.5l2.425-.281C528 121 528 121 531 121"/><path fill="#E8984A" d="M456 655c-3.632 2.421-5.383 2.21-9.687 2.125l-3.575-.055L440 657v-2q2.874-.292 5.75-.562l3.234-.317c2.657-.107 4.516.06 7.016.879"/><path fill="#F6943C" d="M73 542h2v2h2c1.625 1.25 1.625 1.25 3 3v4h-3l-.25-1.875c-.563-2.31-.563-2.31-2.812-3.375L72 545z"/><path fill="#F4943C" d="M55 479h3c2.125 6.625 2.125 6.625 1 10h-2v-4h-2z"/><path fill="#F28E3E" d="M200 247h4c-1.464 4.637-1.464 4.637-3.937 6.313C198 254 198 254 195 254v-4h5z"/><path fill="#F19136" d="M852 199h4l-1 4-6-1 3-1zm-9 3h6v2h-7z"/><path fill="#F49746" d="m840 630 6 3c-2.55 2.354-3.71 2.983-7.25 3.188L836 636v-2h3z"/><path fill="#F68D43" d="M849 627h8v2c-3.83 1.802-6.781 2.196-11 2v-2h3z"/><path fill="#F79B3F" d="m1043 425 1 3h2c-.523 2.763-1.109 5.326-2 8h-3c1-7.429 1-7.429 2-11"/><path fill="#F29E45" d="M339 664c7.75-.125 7.75-.125 10 1v2c-3.694 1.231-6.206.644-10 0z"/><path fill="#F69C46" d="M709 649v2c-2.405 1.203-3.95 1.1-6.625 1.063l-2.477-.028L698 652v-2c4.122-1.63 6.707-2.263 11-1"/><path fill="#F59334" d="M62 522h3l1 6-3 1-1 2c-1.125-2.25-1.125-2.25-2-5 .875-2.312.875-2.312 2-4"/><path fill="#F7983D" d="M977 512v2h-3l1 4-5 2-1-3c2.051-3.487 3.785-5 8-5"/><path fill="#F69943" d="M280 210c-2.53 3.092-5.225 3.91-9 5l-1-3h2v-2c2.862-1.43 4.934-.6 8 0"/><path fill="#F9953C" d="M465 145v3c-5.75 1.125-5.75 1.125-8 0v-3c3.29-1.097 4.713-.8 8 0"/><path fill="#F6A34D" d="m494 136.688 3 .312 2 3-8 2-2-3c2-2 2-2 5-2.312"/><path fill="#F8A750" d="m628.688 113.938 3.011.027L634 114v2a288 288 0 0 1-4.75.625l-2.672.352c-2.807.025-4.212-.529-6.578-1.977 3.15-1.05 5.388-1.101 8.688-1.062"/><path fill="#F4A252" d="m742 668 1 3-11 2-1-2 1-2 10 1z"/><path fill="#F4A143" d="M315 659c3.625-.187 3.625-.187 7 0l-1 4 3 1c-3.683-.6-7.345-1.248-11-2z"/><path fill="#F5A655" d="m339 643 10 1-2 3c-3.5.313-3.5.313-7 0l-2-2z"/><path fill="#F88E26" d="m870 204 2 1-1 5h3l-1 3h-6l2-1-.625-1.75c-.462-2.77.196-3.896 1.625-6.25"/><path fill="#F39A3E" d="m276 651 10 1c-4.5 3.375-4.5 3.375-9 3z"/><path fill="#F49E48" d="M282 630c3.125.375 3.125.375 6 1v4c-4.554.37-4.554.37-6.812-1.5L280 632z"/><path fill="#F2A34F" d="M924 580h4v2h-2l-1 3-6 1v-2h2v-2h3z"/><path fill="#F19B45" d="M1006 497h2c-.37 2.741-.686 4.586-2.375 6.813C1004 505 1004 505 1001 505v-3h3v-3h2z"/><path fill="#EE9036" d="m243 203 2 1v3l-5 1v2h-4v-2l3-1 1-3z"/><path fill="#EE9742" d="M404 160h6v3c-2.75.917-4.36 1.109-7.187 1.063L399 164v-2l5 1z"/><path fill="#F29C4B" d="m507.25 134.75 2.75.25v3l-10 1c2.41-2.967 3.347-3.95 7.25-4.25"/><path fill="#EBA86E" d="M521 687h18v1l-2.887.184-3.8.254c-1.242.08-2.483.162-3.762.246-2.933.26-5.685.664-8.551 1.316z"/><path fill="#F39F52" d="m326 662 9 1v3l-9-1z"/><path fill="#F6A057" d="m934 572 4 1c-2.25 2.5-2.25 2.5-5 5h-4v-2h2v-2h3z"/><path fill="#F69A45" d="M944 548v2h-2v2h-3v2h-3c.313-1.875.313-1.875 1-4 3-2 3-2 7-2"/><path fill="#FCAF61" d="m49 442 2 1c1.158 3.473 1.069 6.36 1 10l-3-1z"/><path fill="#F69934" d="m148 282 4 1v2c-4.47 4-4.47 4-7 4v-4h2z"/><path fill="#FB8A22" d="M836 194c6.152.586 6.152.586 8 1l1 2-3 1-1 2-5-1 3-1v-2h-3z"/><path fill="#EF9645" d="M727 177v2l2 1h-11v-2c2.957-1.478 5.742-1.06 9-1"/><path fill="#F1A85D" d="M527 171v2c-3.473 1.158-6.36 1.069-10 1l1-3c3.478-1.16 5.459-.708 9 0"/><path fill="#F88A1C" d="m473 129-1 2c-2.723.414-2.723.414-6.062.625l-3.348.227L460 132l-1-2c4.672-1.206 9.215-1.094 14-1"/><path fill="#FEAB5E" d="M578 124c4.516-.077 8.59-.102 13 1-2.425 2.425-3.172 2.296-6.5 2.313l-2.406.05L580 127z"/><path fill="#F1A255" d="M541 119h4v2h14v1h-18z"/><path fill="#F49E4E" d="M368 669c3.375-.125 3.375-.125 7 0l2 2-1 2-8-1z"/><path fill="#EDA84E" d="M298 657c6.75-.125 6.75-.125 9 1l-1 3-9-2z"/><path fill="#F59B43" d="M1014 434h3v6l-5 1c.875-5.875.875-5.875 2-7"/><path fill="#F0923A" d="M47 369h3c.688 1.75.688 1.75 1 4-1.312 2.25-1.312 2.25-3 4h-2c-.125-5.75-.125-5.75 1-8"/><path fill="#F98326" d="m214 219 3 1-4 1v2h-2l-1 4-5-2c3.625-3 3.625-3 7-3v-2z"/><path fill="#F89C44" d="M776 118h6l-1 2 7 1v1q-2.125.04-4.25.063l-2.39.035c-2.267-.094-4.189-.466-6.36-1.098z"/><path fill="#F8AA58" d="m302 635 8 1-1 3-7-1z"/><path fill="#F18D3C" d="M900 579c0 3 0 3-1 6l-5 1-1-3z"/><path fill="#F49534" d="m935 553 3 2-4 2v2h-4v-3c2.5-1.687 2.5-1.687 5-3"/><path fill="#F3923A" d="M57 514h1v5h2v5l-3-1c-1.366-2.732-1.128-4.982-1-8z"/><path fill="#F6A95C" d="M1049 361h3l1 8h-3c-1.354-2.709-1.065-5.01-1-8"/><path fill="#FC9F4A" d="M746 116h10l-1 2c-2.066.414-2.066.414-4.562.625l-2.504.227L746 119z"/><path fill="#F3A358" d="M679 679h7v3l-7 1z"/><path fill="#F7A34F" d="m266 649 9 1v2l-6 1v-2h-3z"/><path fill="#F59D4F" d="M737 644v2l-10 1v-2c3.782-1.837 5.946-2.158 10-1"/><path fill="#F39A4B" d="m269 628 7 2v2h-7z"/><path fill="#F49136" d="M86 557c3.688 1.23 4.724 2.939 7 6l-4 1-5-6z"/><path fill="#F29235" d="m122 302 5 1v2c-1.875 1.063-1.875 1.063-4 2l-2-1-1 2v-4h2z"/><path fill="#F89C3F" d="M468 142h6v2h-3l-1 3h-3z"/><path fill="#F3A23A" d="M140 602h7v5c-2.937-.812-2.937-.812-6-2z"/><path fill="#F79B3A" d="M914 571v4h-3v2h-2l-1-4c3-2 3-2 6-2"/><path fill="#F29C3E" d="m1022 299 5 5-1 3h-2v-2l-3-1-1-3h2z"/><path fill="#F29A43" d="M817 195h7l-1 4-6-1z"/><path fill="#F79D44" d="M394 165v3l-6 1-1-3c2.463-1.231 4.28-1.072 7-1"/><path fill="#FCAD5D" d="m545 128 11 1v1l-3.187.438c-2.968.437-5.88.94-8.813 1.562z"/><path fill="#F2A45F" d="M740 125h9l-1 4h-3v-2h-5z"/><path fill="#F9A234" d="m234 621 10 1c-2 2-2 2-5 3v-2h-6z"/><path fill="#F8954C" d="m839 613-1 3-6 1-1-3c3.067-1.862 4.597-2.215 8-1"/><path fill="#FAA258" d="M882 614c-2.41 2.41-4.943 3.538-8 5v-5c3.29-1.097 4.713-.8 8 0"/><path fill="#F29A46" d="M1029 462h2c-.875 4.75-.875 4.75-2 7l-3-1 1-4h2z"/><path fill="#F29232" d="M1005 461h2c-.628 2.929-1.586 5.361-3 8h-2v-6h3z"/><path fill="#F5923E" d="M37 397h3c.25 2.313.25 2.313 0 5-2 1.813-2 1.813-4 3z"/><path fill="#F8A954" d="M1047 349h2l2 7-2 1v-2h-3a100 100 0 0 1 0-5z"/><path fill="#F59E47" d="m1001 297 2 1-1 2h4v4h-4z"/><path fill="#F79B4D" d="M950 240.313c2 .687 2 .687 4 2.687l-1 2a101 101 0 0 1-6-2l-1-2c2-1 2-1 4-.687"/><path fill="#F4963E" d="m219 240-1 3c-2.562 1.188-2.562 1.188-5 2l-2-2c2.466-3.115 4.108-3.316 8-3"/><path fill="#F49F45" d="M872 205c1.938.813 1.938.813 4 2l1 3h-6z"/><path fill="#F79C47" d="m826 191 6 1-1 3-7-1z"/><path fill="#F79A42" d="m335 164-2 4-4-1v-3c3-1 3-1 6 0"/><path fill="#F29F4E" d="M530 130h6v3l-6 1-1-2z"/><path fill="#F19F54" d="M564 125c2.164-.293 2.164-.293 4.625-.187l2.477.082L573 125v2h-7v2l-4-1z"/><path fill="#FCAD53" d="M629 685h9v3l-9-1z"/><path fill="#E29D67" d="m621 656 11 2v1h-12z"/><path fill="#F99C3D" d="M801 649v2l2 1c-3 2-3 2-6 2v-2l-3-1c4.75-2 4.75-2 7-2"/><path fill="#FA9839" d="M260 648h5l1 3 3 1-9-1z"/><path fill="#F6AF57" d="m220 617 8 2-2 3h-4v-2h-2z"/><path fill="#F49F4D" d="M126 592h4v2h3v2c-1.812.625-1.812.625-4 1l-3-2z"/><path fill="#F29F41" d="M101 572h4l1 6c-3.161-1.37-3.993-1.99-6-5z"/><path fill="#F89B41" d="m939 567 4 2-5 4-2-1v-3h3z"/><path fill="#F3943E" d="M995 480h2l-1 5h-2v2l-3-1 1-3h3z"/><path fill="#FBA958" d="m1053 399-1 7h-3v-6c2-1 2-1 4-1"/><path fill="#F58321" d="m228 232 1 2h2l1-2v3h-3v2l-5 1c1.109-2.217 2.494-4.036 4-6"/><path fill="#EF9642" d="m197 229 1 2h2v4h-5z"/><path fill="#F49840" d="m357 175 4 1v3h-7v-2h3z"/><path fill="#F59843" d="M390 146v4h-6v-3c3-1 3-1 6-1"/><path fill="#F29E4F" d="M752 664h5l1 3-6 1-1-2z"/><path fill="#EC9343" d="m679 652 10 1c-2 2-2 2-5.625 2.125L680 655z"/><path fill="#F8A14F" d="M757 638v4h-6v-3c2.076-.553 3.844-1 6-1"/><path fill="#F79F4D" d="m200 613 6 2v2h-8l2-1z"/><path fill="#F39944" d="M172 603h6l1 4h-4l-1-2h-2z"/><path fill="#F69938" d="m148 584 5 2-1 4-4-1c-.562-1.937-.562-1.937-1-4z"/><path fill="#F6913A" d="M1012 441h2v6l-3 1c-1-3-1-3-.062-5.187z"/><path fill="#F9A446" d="M883 210c3.146-.262 4.618-.248 7.313 1.5L892 213l-1 2c-1.937-.375-1.937-.375-4-1l-1-2z"/><path fill="#F89743" d="m348 158-1 5h-4l-1-3c3.75-2 3.75-2 6-2"/><path fill="#F4943B" d="M412 157h6v3l-5 1z"/><path fill="#F8A253" d="M447 147c3 1 3 1 5 2v-2h3l1 3-7 1z"/><path fill="#F3A153" d="M767 635v4h-6l1-3c3-1 3-1 5-1"/><path fill="#F8A540" d="m817 620-1 4h-5v-3c2.076-.553 3.844-1 6-1"/><path fill="#F39143" d="M211 616h6v3h-7z"/><path fill="#F39943" d="m878 592 4 2h-3v3h-4v-3z"/><path fill="#F08F34" d="m65 500 3 1 1 6h-2v-2h-2z"/><path fill="#F1A137" d="m1033 452 1 2 3 1-1 2c-2.562.625-2.562.625-5 1v-4h2z"/><path fill="#F49D4C" d="m1034 321 4 1v5h-2v-2h-2z"/><path fill="#F49340" d="m1001 278 3 1 1 6-4-2z"/><path fill="#F6A049" d="m916 223 5 2v2h-7z"/><path fill="#F6AB5B" d="m372 175-9 3-1-3c3.945-.807 6-1 10 0"/><path fill="#F9A046" d="m420 155 7 2c-3 2-3 2-5.687 1.625L419 158z"/><path fill="#F29F4B" d="M744 666c4.75.75 4.75.75 7 3l-6 1z"/><path fill="#FDAF61" d="M408 651c-2 2-2 2-5.625 2.125L399 653c1-2 1-2 2.813-2.687 2.375-.34 3.92-.042 6.187.687"/><path fill="#F4A354" d="m315 638 5 1v3h-5z"/><path fill="#F78823" d="M288 632h6l-2 5-2-1v-2h-2z"/><path fill="#FCA137" d="m204 614 8 1-1 3-5-1v-2z"/><path fill="#F7903A" d="M859 603v6h-2v-2h-2v-3c2-1 2-1 4-1"/><path fill="#F08B32" d="M976 508h3l-1 4-5 1c1.875-3.875 1.875-3.875 3-5"/><path fill="#FB9E2F" d="M989 488h2v5l-2 1-2-1c.875-3.875.875-3.875 2-5"/><path fill="#EE9A44" d="M77 352h5c-1.812 2.5-1.812 2.5-4 5h-3v-2h2z"/><path fill="#F48E34" d="M127 278v2h-2v2h-4v-3c2-1 2-1 6-1"/><path fill="#FA8720" d="m132 273-1 3h-3v2l-4-1h2v-2c3-2 3-2 6-2"/><path fill="#F2A047" d="M222 235h4l-1 4-4 1-1-3h2z"/><path fill="#F19D48" d="M894 213c2.625.938 2.625.938 5 2-2 2-2 2-4.625 2.125L892 217v-3z"/><path fill="#F69B44" d="M795 183h3v3l3 1h-7z"/><path fill="#EC9543" d="M768 185h9l-3 1v2c-2.437-.375-2.437-.375-5-1z"/><path fill="#F69D4E" d="M315 172v3h-5l-1-3c3-1 3-1 6 0"/><path fill="#F69E45" d="M386 167v3l-5 1-1-3c2-1 2-1 6-1"/><path fill="#EE974C" d="M518 132c2.438.375 2.438.375 5 1l1 2-7 1z"/><path fill="#FCA756" d="m492 126-3 1v3h-2v-2h-5c3.644-2.43 5.712-2.162 10-2"/><path fill="#F59B47" d="M795 121c3 1 3 1 4 2h3v2h-8z"/><path fill="#EC9D57" d="M639 684c2.875-.187 2.875-.187 6 0l2 3-8-1z"/><path fill="#F9A555" d="M792 652h5v3l-5 1z"/><path fill="#F8AB64" d="m810 623-1 4h-4l-1-3c3-1 3-1 6-1"/><path fill="#F8A24E" d="m830 615 1 3-6 1v-3c3-1 3-1 5-1"/><path fill="#F6A24D" d="m102 546 2 1v2l2 1-1 2c-2 0-2 0-3.625-1.375C100 549 100 549 100 547z"/><path fill="#F19440" d="M1021 474h2v6l-4 1v-2h2z"/><path fill="#F09341" d="M35 408h3l-1 9h-1z"/><path fill="#FAAA1F" d="m1004 280 7 6-3 1v-2l-4-2z"/><path fill="#F1933E" d="M979 275h5v4h-4z"/><path fill="#F6831F" d="m798 184 9 1-2 2c-3.625-.375-3.625-.375-7-1z"/><path fill="#F0943F" d="m752 174 1 4-7-1c3-2 3-2 6-3"/><path fill="#F0A15B" d="M374 170h5v3l-5 1z"/><path fill="#FDAF62" d="m716 168-2 3c-3.125.188-3.125.188-6 0 2.466-3.115 4.108-3.316 8-3"/><path fill="#EA973D" d="M534 168h5v3h-6z"/><path fill="#F89936" d="M327 166v4h-5v-3c3-1 3-1 5-1"/><path fill="#F79E48" d="m397 143 3 1-2 4h-4v-2h3z"/></svg>