<svg xmlns="http://www.w3.org/2000/svg" xml:space="preserve" width="622" height="113"><path fill="#fff" d="M95 37h47v14a8089 8089 0 0 0-36 0h-8l-4 2c-2 3-2 3-2 10l50 1-5 13H92c0 7 0 7 5 12h10a5724 5724 0 0 1 36 1c-1 5-2 8-5 13a4340 4340 0 0 1-33 0h-3c-8 0-13-2-19-6l-2-5h-2l-1-3v-3l-1-4-1-3c-1-11-1-25 5-34l3-1v-2c4-3 6-4 11-3v-2Zm394 0h67c0 14 0 14-3 18l-3 2-4 2-1 1-9 7-3 3-2 1-8 7-2 2-6 5-5 5h46v13h-67V90l6-5 10-7 12-11 19-16-47-1V37Zm-292-1h19a324 324 0 0 1-3 6l-6 7-16 1a681 681 0 0 0-13 0c-6 0-10 3-14 7-4 5-4 11-3 18 2 5 5 9 10 12l10 1a2271 2271 0 0 1 12 0c13 0 13 0 17 2l4 6 2 2 1 4a2135 2135 0 0 1-34 0h-2c-10 0-19-3-26-10-7-8-9-16-9-27 1-10 7-17 15-24 10-7 24-5 36-5ZM5 37a18070 18070 0 0 1 56 0h10l3 1v12H45v53H32V50H0l5-13Zm479 0 3 1c-1 3-2 5-5 7l-1 1-2 2c-19 15-17 15-26 36v20h-13v-3a2519 2519 0 0 0 0-21v-4c0-3 0-3-3-6l-3-1-3-4-11-11-10-10-1-2c-2-1-2-1-2-3 17-1 17-1 22 1l4 7 4 4 2 2a17130 17130 0 0 0 9 7 11995 11995 0 0 1 3-2c7-13 19-23 33-21Z"/><path fill="#fff" d="M374 38h12v4a1736 1736 0 0 0 0 27v2c0 6 1 11 5 15s9 4 14 4a4863 4863 0 0 0 33 0v13a2024 2024 0 0 1-24 1c-25 0-25 0-33-7-7-7-8-14-8-23V61a4782 4782 0 0 0 1-23Zm-102 0h12v65h-13V77a11705 11705 0 0 0-29 0l-7-11v-2h37V38Zm-52-1h13v66h-13V37Zm354 1h47v14a8089 8089 0 0 0-35 0h-9l-4 2-2 10 50 1-5 13h-45c1 7 1 7 5 12l11 1a5724 5724 0 0 1 35 0c0 5-2 8-5 13a4340 4340 0 0 1-33 0h-3c-7 0-13-1-19-6l-2-5h-2v-3l-1-3v-3l-2-4c-1-11 0-25 5-34l3-1v-2c4-2 7-4 11-3v-2Z"/><path fill="#e5bf2d" d="M359 48c4 1 6 3 6 7l-2 2h-1l-2-3-1-6Z"/><path fill="#cdaa33" d="M304 52c-3 5-4 9-5 14l-4-7 2 1 3-4c-2-1-3-2-1-4h5Z"/><path fill="#ddc03e" d="m308 47-4 5-1-2h-1l4-4 2 1Z"/><path fill="#f4d784" d="M346 39h3c2 3 5 5 8 4-1 2-1 2 1 3l1 2 1 6-2-6c-4 1-6-1-7-5l-5-4Z"/><path fill="#7e6814" d="m307 41 1 6-2-1-4 4h1v2h-4c-2 2-1 3 1 4l-3 4-2-1c0-3 0-5 2-6l-2-3 1-3 1-4v2c3 3 5 3 6-1l4-3Z"/><path fill="#967f2d" d="M345 35h4c2 4 5 5 9 5v6c-2-1-2-1-1-3-3 1-6-1-8-4s-5-3-8-2l-1-2c2 0 3 0 4-2l1 2Z"/><path fill="#fef2c2" d="m336 38-3 1-2-2-14 4 15-6 4 3Z"/><path fill="#66570f" d="m320 33-4 1-3 7h-6c1-1 1-3-1-4 4-5 8-6 14-4Z"/><path fill="#d9be45" d="M333 22v3l1 8c2-1 4-1 5 1 2-2 2-2 1 1l1 2c3-1 6-1 8 2h-3l-10-1-4-3-15 6-9 6-1-6h6l3-7 4-1 3-1c-2 2-1 3 0 4 2-2 3-2 6-2v-2l2-1 2-9Z"/><path fill="#90841c" d="m330 32-1 2c-3 0-4 0-6 2-1-1-2-2 0-4h7Z"/><path fill="#4e4205" d="m333 25 2 4 2-1 1 3h7v4l-1-2c-1 2-2 2-4 2 1-3 1-3-1-1-1-2-3-2-5-1l-1-8Z"/><path fill="#524814" d="M331 16v15l-2 1h-6l-3 1c-6-2-10-1-14 4l-1-1 2-4 2-1 10-2c0 2 1 3 3 1l-2-1 4-1v-3l2-1 1 6 2-2 2-12Z"/><path fill="#d0b451" d="M319 29h1l2 1c-2 2-3 1-3-1Z"/><path fill="#847935" d="m340 26 1 3c2-1 3 0 4 2h-7l-1-3c2 0 3-1 3-2Z"/><path fill="#e0d69d" d="M340 26c0 1-1 2-3 2v-3l3 1Z"/><path fill="#b8ad7f" d="m331 1 2 20v25l-2 8V1Z"/><path fill="#a0965c" d="m289 53 5 2c-2 1-4 0-5-2Z"/><path fill="#fbe7a2" d="M362 57h1l3 10-3 1-1-11Z"/><path fill="#c8ae3c" d="M369 60v3c-5 1-5 4-1 7 4 0 5 1 2 4l-4-4-2 5c1 2 1 3-1 3 1 2 2 3 1 4l-4 1 2-9-1-4 3-1c-2-3-3-6-3-10l2-2h3c-2 1-3 3-3 5 2 1 5 0 6-2Z"/><path fill="#6b6011" d="m295 59 4 7h-1c-2-1-3-1-3 1l3 18c2-2 4-2 6 0l-1 2 2 3-1 2-6 2 4-6-7-4-1 1c0-2 0-4-2-6l2-2-3-5 1-3-3-4c1-3 3-5 6-6Z"/><path fill="#dac349" d="M298 66c0 6 3 12 6 16v3c-2-2-4-2-6 0l-3-18c1-2 1-2 3-1Z"/><path fill="#bca84e" d="m368 65 3 2c-2 2-4 1-3-2Z"/><path fill="#fdf5d9" d="m336 38 10 1c1 2 2 3 5 4 0 4 3 6 7 5 0 3 0 5 2 6l2 3 1 11 1 3-2 10h-1l-7 10c-14 11-28 12-44 2-1-3-4-5-6-6v-5c-3-4-6-10-6-16h1c1-5 2-9 5-14l4-5 9-6 14-4 2 2 3-1Z"/><path fill="#564804" d="M322 54c0 2-1 3-3 3 2 4 1 8-2 11a2176 2176 0 0 0 3 10l5 2-2 2 6 2-2 2c3 0 5-1 8-3h5c2 3 1 3-1 2l-14 4-2-2c1-1 2-2 1-3h-7l3-4c-1-1-2 0-3 1l-6-9v-2l4-4c-1-2-2-2-3-1 0-2 0-3 2-5l-1-3 3 2v-4l1-3 3-1v3h2Z"/><path fill="#766009" d="M353 64v4c0 2 1 3 3 3v1c-2 1-4 2-5 5h-4v-4l2 2 2-1 2-10Z"/><path fill="#453905" d="m331 50 1 21c1-6 2-11 1-17 3 0 5 1 6 3l1-2 5 2 3 5 1 2h4l-2 10-2 1-2-2c-3 0-4 2-3 5h3l-1 4-6 1h-5c-3 2-5 3-8 3l2-2-6-2 2-2-5-2h-2l-1-10c3-3 4-7 2-11 2 0 3-1 3-3 4 1 6-1 7-5l2 1Z"/><path fill="#9d851f" d="M316 55v4c-1-2-2-2-3-2l1 3c-2 2-2 3-2 5 1-1 2-1 3 1l-4 4c-1-5-1-10 2-14l3-1Z"/><path fill="#f3df89" d="M340 46h-3c-4 1-6 4-4 8 1 6 0 11-1 17l-1-21v-3c-2-1-3-2-4-1 4-3 9-3 13 0Z"/><path fill="#93770a" d="M353 64h-4l-1-2c1-1 3-2 6-1l-1 3Z"/><path fill="#695806" d="M337 46c0 2 1 3 3 1l5 5v3h5c3 1 3 3 1 5l-3-2v5l-3-6-5-2-1 2c-1-2-3-3-6-3-2-4 0-7 4-8Z"/><path fill="#e9ce5f" d="M327 46c1-1 2 0 3 1l-1 1c-1-2-3-2-5 0s-3 4-2 6h-2v-3l-3 1-1 3-3 1c-3 4-3 9-2 14v2l-3-1-1-5 3-9 3-5c4-3 9-5 14-6Z"/><path fill="#d6bc43" d="M337 46h3l14 8 2 8c-2 3-2 6 0 9-2 0-3-1-3-3v-4l1-3c-3-1-5 0-6 2v-5l3 2c2-2 2-4-1-5h-5v-3l-5-5c-2 2-3 1-3-1Z"/><path fill="#d6c03d" d="m334 50 4 2-4 1v-3Z"/><path fill="#8d7614" d="m330 47 1 3-2-1c-1 4-3 6-7 5-1-2 0-4 2-6s4-2 5 0l1-1Z"/><path fill="#4e430d" d="M351 97c1 4 2 4 3 0l4 1v3l-9 1v-1l2-4Z"/><path fill="#ceb841" d="m361 81 3 6c-2 0-3 1-3 3-1-2-2-2-3-2l1 1a413 413 0 0 0-10 12c-4-1-8-1-13 2l-2-2-2 2-2 5c1-2 0-3-1-3l-5 3 3-4-3-2h-2c1-2 1-2-1-1l-4-3-1 1-1-2h-3l-2-4c16 10 30 9 44-2l7-10Z"/><path fill="#73621f" d="m304 93 2 1 4-1c0 1 0 3 2 4h3l1 2 1-1 4 3c2-1 2-1 1 1h2l3 2-3 4-2-1-3-4c-3 3-4 2-4-2h-6c1-2 1-3-1-4l-2 8-2-1 2-8c-2-1-4 0-4 3h-3l-1-2c-1 1-2 0-2-2l4 1c2 0 4-2 4-3Z"/><path fill="#79751e" d="M355 95h3l2 3h-2l-4-1c-1 4-2 4-3 0l4-2Z"/><path fill="#d3bb32" d="M304 87c2 1 5 3 6 6l-4 1-1-1v-3l-1-3Z"/><path fill="#fae89a" d="M347 87v3c-3-1-5 0-7 2h-12l3-2c6 1 11 0 16-3Z"/><path fill="#887615" d="m346 82 3 3-2 2c-5 3-10 4-16 3l-6-1 14-4c2 1 3 1 1-2l6-1Z"/><path fill="#aa8a20" d="m308 71 3 1 6 9c1-1 2-2 3-1l-3 4h7l-1 3 2 2 6 1c-1 2-2 2-3 2l-7-2c-7-5-11-11-13-19Z"/><path fill="#bea32d" d="M356 72c-1 5-3 9-7 13 0-2-1-2-3-3l1-4h-3c-1-3 0-5 3-5v4h4c1-3 3-4 5-5Z"/><path fill="#776825" d="M349 101v1c-3 0-3 1-3 4-2-1-5 0-7 1l-2-3h-2c-1 6 2 3 2 9-1-6-5-3-5-10l2-2 2 2c5-3 9-3 13-2Z"/><path fill="#3c340d" d="M304 104c0 2 1 3 3 4 2-2 2-3-1-3l2-8c2 1 2 2 1 4h6c0 4 1 5 4 2l3 4 2 1 4-3c2 0 2 1 2 3l-3 1c1 2 1 3-1 3l-6-4c-3 5-6 4-7-1h-3c-1 2-4 3-6 2-2-3-2-6 0-8l-2-2c0-3 2-4 4-3l-2 8Z"/><path fill="#e1ce89" d="m305 104 1 1c3 0 3 1 1 3-2-1-3-2-2-4Z"/></svg>